<svg version="1.1" xmlns="http://www.w3.org/2000/svg" xmlns:xlink="http://www.w3.org/1999/xlink" width="722.67339" height="963.76707" viewBox="0,0,722.67339,963.76707"><defs><radialGradient cx="298.6667" cy="-240.42995" r="153" gradientUnits="userSpaceOnUse" id="color-1"><stop offset="0" stop-color="#ffffff"/><stop offset="1" stop-color="#ffffff" stop-opacity="0"/></radialGradient></defs><g transform="translate(121.16662,511.92996)"><g data-paper-data="{&quot;isPaintingLayer&quot;:true}" fill-rule="nonzero" stroke="none" stroke-linecap="butt" stroke-linejoin="miter" stroke-miterlimit="10" stroke-dasharray="" stroke-dashoffset="0" style="mix-blend-mode: normal"><path d="M-121.16661,-89.59757c0,-1.19662 1.11929,-2.16667 2.5,-2.16667c1.38071,0 2.5,0.97005 2.5,2.16667c0,1.19662 -1.11929,2.16667 -2.5,2.16667c-1.38071,0 -2.5,-0.97005 -2.5,-2.16667z" fill="none" stroke-width="0.5"/><path d="M596.50677,449.33712c0,-1.38071 1.11929,-2.5 2.5,-2.5c1.38071,0 2.5,1.11929 2.5,2.5c0,1.38071 -1.11929,2.5 -2.5,2.5c-1.38071,0 -2.5,-1.11929 -2.5,-2.5z" fill="none" stroke-width="0.5"/><path d="M162.1667,31.07004v-543h273v543z" fill="url(#color-1)" stroke-width="0"/></g></g></svg>