<svg version="1.1" xmlns="http://www.w3.org/2000/svg" xmlns:xlink="http://www.w3.org/1999/xlink" width="78.55853" height="44.54932" viewBox="0,0,78.55853,44.54932"><g transform="translate(-198.80231,-157.01462)"><g data-paper-data="{&quot;isPaintingLayer&quot;:true}" fill-rule="nonzero" stroke-linecap="butt" stroke-linejoin="miter" stroke-miterlimit="10" stroke-dasharray="" stroke-dashoffset="0" style="mix-blend-mode: normal"><path d="M198.84872,193.63241c-0.00454,-2.87274 -0.00949,-6.01335 -0.01338,-8.48054c-0.00798,-5.0547 -0.02325,-14.72273 -0.03302,-20.90945c-0.00532,-3.36697 2.70313,-5.70683 7.08485,-5.71328c16.27702,-0.02393 55.59333,-0.08172 64.50649,-0.09482c3.51373,-0.00516 6.91315,3.45892 6.91798,6.51736c0.00835,5.28851 0.03531,22.36061 0.0492,31.15793c0.00256,1.62134 -2.48879,5.35448 -6.25976,5.36002c-7.35613,0.01081 -19.55922,0.02875 -27.5269,0.04047c-9.37094,0.01378 -26.50391,0.03896 -36.62315,0.05384c-3.10382,0.00456 -8.09556,-3.66429 -8.10229,-7.93152z" fill="#0004ff" stroke="none" stroke-width="0"/><text transform="translate(207.45408,175.11811) scale(0.40682,0.40682)" font-size="40" xml:space="preserve" fill="#ffffff" fill-rule="nonzero" stroke="#ffffff" stroke-width="3" stroke-linecap="butt" stroke-linejoin="miter" stroke-miterlimit="10" stroke-dasharray="" stroke-dashoffset="0" font-family="Sans Serif" font-weight="normal" text-anchor="start" style="mix-blend-mode: normal"><tspan x="0" dy="0">chat</tspan><tspan x="0" dy="48px">チャット</tspan></text></g></g></svg>