<svg version="1.1" xmlns="http://www.w3.org/2000/svg" xmlns:xlink="http://www.w3.org/1999/xlink" width="520.07997" height="378.47834" viewBox="0,0,520.07997,378.47834"><defs><linearGradient x1="235.5006" y1="-9.23917" x2="235.5006" y2="220.90357" gradientUnits="userSpaceOnUse" id="color-1"><stop offset="0" stop-color="#6895e3"/><stop offset="1" stop-color="#fff8f8"/></linearGradient><radialGradient cx="340.4549" cy="210.52146" r="97.49837" gradientUnits="userSpaceOnUse" id="color-2"><stop offset="0" stop-color="#ffed9a"/><stop offset="1" stop-color="#ffed9a" stop-opacity="0"/></radialGradient><radialGradient cx="346.71688" cy="242.75285" r="254.76589" gradientUnits="userSpaceOnUse" id="color-3"><stop offset="0" stop-color="#ffffd6"/><stop offset="1" stop-color="#8db7ff"/></radialGradient></defs><g transform="translate(20.03997,9.23917)"><g data-paper-data="{&quot;isPaintingLayer&quot;:true}" fill-rule="nonzero" stroke="none" stroke-width="0" stroke-linecap="butt" stroke-linejoin="miter" stroke-miterlimit="10" stroke-dasharray="" stroke-dashoffset="0" style="mix-blend-mode: normal"><path d="M-10.95496,220.90357v-230.14273h492.91102v230.14273z" fill="url(#color-1)"/><path d="M242.95653,210.52146c0,-52.03321 43.65151,-94.21443 97.49837,-94.21443c53.84687,0 97.49837,42.18124 97.49837,94.21443c0,52.03321 -43.65151,94.21444 -97.49837,94.21444c-53.84687,0 -97.49837,-42.18125 -97.49837,-94.21444z" fill="url(#color-2)"/><path d="M264.8534,210.36738c0,-41.63862 33.75477,-75.39338 75.39338,-75.39338c41.63862,0 75.39338,33.75477 75.39338,75.39338c0,41.63862 -33.75477,75.39338 -75.39338,75.39338c-41.63862,0 -75.39338,-33.75477 -75.39338,-75.39338z" fill="#fffad6"/><path d="M245.12661,201.0139l4.61628,-58.21014l61.33052,57.55069z" fill="#dedfca"/><path d="M213.93335,205.32965l35.941,-61.00077l6.52547,13.67254l4.79366,7.01583l5.59194,3.77495l9.08455,24.6228z" fill="#c2c8ba"/><path d="M326.44907,191.3608l129.58544,-54.07636l-22.75164,54.07637z" fill="#dedfca"/><path d="M202.87347,197.56734l17.59042,-64.58138l48.35636,63.92191z" fill="#dedfca"/><path d="M372.53618,191.18735l84.08215,-54.4061l34.29233,55.72504z" fill="#c2c8ba"/><path d="M190.12806,202.32857l29.73966,-69.39252l1.44325,20.05446l11.83384,12.87141l0.37214,10.79891l0.91713,21.82383z" fill="#c2c8ba"/><path d="M56.56826,275.13376l24.45791,-56.74235c0,0 226.7245,-34.81964 274.00766,-37.93151c41.01109,-2.69909 127.54621,-2.66862 127.54621,-2.66862l1.92166,93.1547z" fill="#bcd669"/><path d="M117.85468,198.74122l-22.75164,-54.07636l129.58545,54.07637z" data-paper-data="{&quot;index&quot;:null}" fill="#dedfca"/><path d="M223.75408,198.39559c0,0 115.38775,-2.57686 163.36447,-2.86108c35.84928,-0.21238 98.86569,1.30758 98.86569,1.30758l-0.32738,29.82712c0,0 -73.90534,-10.64656 -111.67672,-14.72415c-47.34732,-5.11136 -150.22606,-13.54948 -150.22606,-13.54948z" fill="#9eb84c"/><path d="M72.96313,201.47495l22.45648,-56.44464l77.48494,55.83771z" fill="#c2c8ba"/><path d="M-15.30538,357.95059v-180.7245c0,0 152.34335,17.42859 227.04123,17.42859c69.53993,0 273.65982,17.08066 273.65982,17.08066l4.07092,153.21782z" fill="#aec937"/><g fill-opacity="0.50196" fill="#fcfcfc"><path d="M-15.08712,52.38693c0,0 135.09513,29.58223 200.57817,29.55468c68.2643,1.20815 217.10705,-26.04829 274.68249,-36.36952c16.30697,-2.92326 15.28548,-0.80117 15.28548,-0.80117c0,0 -189.34684,38.86032 -276.09657,41.58161c-70.91871,2.22469 -214.03034,-19.96902 -214.03034,-19.96902z"/><path d="M-19.88097,68.98846c2.68151,0.29501 17.99641,4.79107 38.62111,7.92897c21.93643,3.33746 49.54739,5.35993 62.87002,6.81272c25.13155,2.74051 50.60388,6.96055 67.46193,8.54896c29.21391,2.7526 69.71877,5.43238 97.21211,5.99051c18.31915,0.37188 31.27497,-0.42156 31.27497,-0.42156c0,0 -12.26613,1.81407 -29.5645,1.7095c-29.6055,-0.17895 -75.62825,-3.23637 -107.54589,-6.07969c-40.71116,-3.62667 -111.80254,-7.71041 -145.27291,-13.68199c-14.01016,-2.4996 -15.86257,-10.89606 -15.05684,-10.80742z"/><path d="M322.67956,60.78629c35.89064,-6.56819 68.63851,-14.7856 80.51309,-18.05193c22.52013,-6.1946 38.91615,-12.52216 45.15985,-14.68909c23.20034,-8.05188 38.29796,-15.48099 38.29796,-15.48099l-1.74383,9.84732c0,0 -12.63804,5.24035 -32.13675,10.56786c-15.20302,4.15383 -53.74727,16.13766 -112.36217,26.57038c-59.74582,10.63401 -121.16449,13.55178 -121.16449,13.55178c0,0 52.64113,-3.01951 103.43635,-12.31532z"/></g><path d="M15.13889,182.3525c0,0 29.06209,1.63625 62.47552,5.69784c30.15137,3.66508 129.22592,17.6046 129.22592,17.6046c0,0 -87.02422,-9.95691 -122.03887,-14.21314c-26.45454,-3.2157 -69.66256,-9.0893 -69.66256,-9.0893z" fill="#a6a636"/><path d="M-11.79686,350.51562l1.49751,-112.61752c0,0 153.61987,-5.3279 253.72552,-4.46852c102.69556,0.88161 256.61383,12.38835 256.61383,12.38835l-1.49751,112.61752z" fill="#a6a636"/><path d="M-12.88333,369.23918v-122.17465c0,0 153.27441,-7.71109 253.21244,-8.40516c102.5236,-0.71202 256.31934,8.40516 256.31934,8.40516v122.17465z" fill="url(#color-3)"/></g></g></svg>